<?xml version="1.0" encoding="utf-8"?>
<svg width="118" height="126" viewBox="0 0 118 126" fill="none" xmlns="http://www.w3.org/2000/svg">
  <defs>
    <radialGradient id="gradient_1" gradientUnits="userSpaceOnUse" cx="0" cy="0" r="1" gradientTransform="matrix(23 21 -18.667 20.445 32 36)">
      <stop offset="0" stop-color="#8308BD" />
      <stop offset="1" stop-color="#E11FFF" />
    </radialGradient>
    <filter color-interpolation-filters="sRGB" x="-62" y="-70" width="64" height="72" id="filter_2">
      <feFlood flood-opacity="0" result="BackgroundImageFix_1" />
      <feColorMatrix type="matrix" values="0 0 0 0 0 0 0 0 0 0 0 0 0 0 0 0 0 0 1 0" in="SourceAlpha" />
      <feOffset dx="0" dy="0" />
      <feGaussianBlur stdDeviation="9" />
      <feColorMatrix type="matrix" values="0 0 0 0 0.471 0 0 0 0 0 0 0 0 0 0.431 0 0 0 0.251 0" />
      <feBlend mode="normal" in2="BackgroundImageFix_1" result="Shadow_2" />
      <feBlend mode="normal" in="SourceGraphic" in2="Shadow_2" result="Shape_3" />
    </filter>
  </defs>
  <g transform="translate(9 16)">
    <path d="M9 0L91 0C95.9712 0 100 4.02876 100 9L100 91C100 95.9712 95.9712 100 91 100L9 100C4.02876 100 0 95.9712 0 91L0 9C0 4.02876 4.02876 0 9 0L9 0Z" fill="#121212" />
    <path d="M39.7032 16.7722L64 66.9995L63.9105 67.0421Q63.6525 67.165 63.3888 67.2753Q63.1252 67.3856 62.8565 67.483Q62.5878 67.5805 62.3148 67.6649Q62.0417 67.7492 61.7649 67.8203Q61.4882 67.8915 61.2082 67.9491Q60.9283 68.0068 60.646 68.0509Q60.3636 68.095 60.0794 68.1255Q59.7953 68.1559 59.51 68.1726Q59.2247 68.1893 58.9389 68.1922Q58.6531 68.1951 58.3676 68.1843Q58.082 68.1734 57.7973 68.1488Q57.5125 68.1241 57.2293 68.0858Q56.9461 68.0475 56.6651 67.9955Q56.3841 67.9436 56.1059 67.8781Q55.8277 67.8127 55.553 67.7339Q55.2783 67.6551 55.0077 67.5632Q54.7371 67.4712 54.4712 67.3664Q54.2054 67.2615 53.9449 67.1439Q53.6844 67.0263 53.4299 66.8963Q53.1754 66.7663 52.9275 66.6241Q52.6796 66.482 52.4388 66.3281Q52.198 66.1741 51.9649 66.0088Q51.7318 65.8434 51.507 65.667Q51.2821 65.4906 51.066 65.3035Q50.85 65.1165 50.6432 64.9192Q50.4364 64.722 50.2393 64.515Q50.0423 64.308 49.8555 64.0917Q49.6686 63.8754 49.4925 63.6504Q49.3163 63.4254 49.1512 63.1921Q48.986 62.9589 48.8324 62.7179Q48.6787 62.477 48.5368 62.2289Q48.3949 61.9808 48.2652 61.7262L31.5898 29L14.879 61.5087C12.1845 66.7506 5.5639 69.2255 0.091692 67.0362C0.0317574 67.0122 0 66.9995 0 66.9995L23.6441 16.8523Q23.7776 16.5691 23.9307 16.2961Q24.0837 16.023 24.2556 15.7614Q24.4275 15.4998 24.6173 15.2509Q24.8071 15.002 25.014 14.767Q25.2208 14.5321 25.4437 14.3123Q25.6665 14.0924 25.9043 13.8888Q26.142 13.6852 26.3935 13.4988Q26.6449 13.3124 26.9089 13.1441Q27.1728 12.9758 27.4479 12.8265Q27.7231 12.6771 28.008 12.5475Q28.2929 12.4179 28.5863 12.3086Q28.8796 12.1993 29.1799 12.1109Q29.4802 12.0225 29.7859 11.9555Q30.0917 11.8884 30.4014 11.8429Q30.7111 11.7975 31.0232 11.774Q31.3354 11.7504 31.6484 11.7488Q31.9614 11.7473 32.2738 11.7677Q32.5862 11.7882 32.8963 11.8305Q33.2065 11.8728 33.5129 11.9369Q33.8193 12.0009 34.1204 12.0863Q34.4216 12.1717 34.716 12.2781Q35.0104 12.3844 35.2966 12.5112Q35.5828 12.638 35.8594 12.7845Q36.136 12.9311 36.4016 13.0967Q36.6672 13.2624 36.9205 13.4463Q37.1738 13.6302 37.4136 13.8314Q37.6534 14.0327 37.8784 14.2503Q38.1034 14.4679 38.3126 14.7008Q38.5218 14.9336 38.7141 15.1806Q38.9064 15.4276 39.0809 15.6875Q39.2553 15.9474 39.4111 16.2189Q39.5669 16.4904 39.7032 16.7722Z" fill="url(#gradient_1)" fill-rule="evenodd" filter="url(#filter_2)" transform="translate(18 11)" />
  </g>
</svg>